<svg width="65" height="65" viewBox="0 0 65 65" fill="none" xmlns="http://www.w3.org/2000/svg">
<g clip-path="url(#clip0_46_146)">
<path d="M32.5 0C23.8824 0 15.6102 3.42621 9.52148 9.51895C3.42653 15.6141 0.00168832 23.8803 0 32.5C0 41.1161 3.42773 49.3883 9.52148 55.4811C15.6102 61.5738 23.8824 65 32.5 65C41.1176 65 49.3898 61.5738 55.4785 55.4811C61.5723 49.3883 65 41.1161 65 32.5C65 23.8839 61.5723 15.6117 55.4785 9.51895C49.3898 3.42621 41.1176 0 32.5 0Z" fill="url(#paint0_linear_46_146)"/>
<path d="M14.711 32.1566C24.1868 28.0291 30.504 25.3078 33.6626 23.993C42.6915 20.2388 44.5653 19.5867 45.7892 19.5646C46.0583 19.5603 46.6575 19.6269 47.0485 19.943C47.3735 20.2096 47.4649 20.5701 47.5106 20.8233C47.5513 21.0761 47.6071 21.6525 47.5614 22.1024C47.0739 27.2415 44.9564 39.7124 43.8798 45.4684C43.4278 47.9039 42.529 48.7204 41.6607 48.8002C39.7716 48.9738 38.3396 47.553 36.5114 46.3551C33.6524 44.4797 32.0376 43.3128 29.2599 41.4831C26.0505 39.3686 28.1325 38.2062 29.9606 36.307C30.438 35.8098 38.756 28.246 38.9134 27.5599C38.9337 27.4741 38.954 27.1542 38.761 26.9856C38.5732 26.8165 38.2939 26.8744 38.0907 26.9201C37.8013 26.9851 33.236 30.0055 24.3798 35.981C23.0849 36.8717 21.9118 37.3058 20.8556 37.283C19.6978 37.2581 17.4634 36.6269 15.8028 36.0876C13.7716 35.4259 12.1517 35.076 12.2939 33.9522C12.3649 33.3672 13.1724 32.7685 14.711 32.1566Z" fill="white"/>
</g>
<defs>
<linearGradient id="paint0_linear_46_146" x1="3250" y1="0" x2="3250" y2="6500" gradientUnits="userSpaceOnUse">
<stop stop-color="#2AABEE"/>
<stop offset="1" stop-color="#229ED9"/>
</linearGradient>
<clipPath id="clip0_46_146">
<rect width="65" height="65" fill="white"/>
</clipPath>
</defs>
</svg>
