<svg width="160" height="37" viewBox="0 0 160 37" fill="none" xmlns="http://www.w3.org/2000/svg">
<g id="logos:youtube">
<path id="Vector" d="M49.9656 5.60312C49.6725 4.52006 49.1007 3.53267 48.3073 2.73931C47.5139 1.94594 46.5265 1.37428 45.4434 1.08125C41.4781 0 25.5206 0 25.5206 0C25.5206 0 9.56246 0.0328125 5.59778 1.11406C4.51475 1.40714 3.52739 1.97882 2.73403 2.77219C1.94066 3.56555 1.36898 4.55291 1.0759 5.63594C-0.123472 12.6812 -0.588784 23.4159 1.10872 30.1791C1.40179 31.2621 1.97348 32.2494 2.76684 33.0428C3.5602 33.8362 4.54756 34.4079 5.63059 34.7009C9.59559 35.7822 25.5534 35.7822 25.5534 35.7822C25.5534 35.7822 41.5112 35.7822 45.4762 34.7009C46.5592 34.4079 47.5466 33.8362 48.34 33.0428C49.1333 32.2494 49.705 31.2621 49.9981 30.1791C51.2628 23.1241 51.6528 12.3959 49.9653 5.60344L49.9656 5.60312Z" fill="#FF0000"/>
<path id="Vector_2" d="M20.4414 25.5589L33.6795 17.8914L20.4414 10.2236V25.5589Z" fill="white"/>
<path id="Vector_3" d="M153.512 10.3876C155.248 10.3876 156.559 10.7151 157.476 11.3376C158.394 11.9604 159.049 12.9432 159.442 14.287C159.836 15.6304 159.999 17.4651 159.999 19.8245V23.6586H151.578V24.8379L151.709 28.082C151.808 28.8029 151.972 29.3273 152.233 29.6548C152.496 29.9826 152.922 30.1464 153.479 30.1464C154.232 30.1464 154.757 29.8517 155.019 29.262C155.314 28.672 155.445 27.6889 155.478 26.3454L159.836 26.6076C159.868 26.8042 159.868 27.0664 159.868 27.3939C159.868 29.4582 159.311 30.9986 158.164 32.0142C157.018 33.0298 155.445 33.5542 153.38 33.5542C150.89 33.5542 149.153 32.7679 148.17 31.2279C147.188 29.6876 146.663 27.2626 146.663 24.0189V20.0539C146.774 14.4836 147.754 10.4039 153.512 10.3876ZM92.924 10.8136V27.2301C92.924 28.2132 93.0222 28.9342 93.2515 29.3601C93.7169 30.2711 94.9228 30.0382 95.5781 29.5895C95.9564 29.3338 96.2614 28.9837 96.4628 28.5739V10.8132H101.476V33.1936H97.544L97.1181 30.4411H97.02C95.9387 32.5054 94.3328 33.5539 92.2031 33.5539C88.925 33.5457 88.1228 31.1839 87.9318 28.7851L87.9194 28.6161C87.8958 28.2527 87.8819 27.8889 87.8778 27.5248V10.8136H92.9237H92.924ZM118.778 10.8136V27.2301C118.778 28.2132 118.876 28.9342 119.105 29.3601C119.571 30.2711 120.777 30.0382 121.432 29.5895C121.81 29.3338 122.115 28.9837 122.317 28.5739V10.8132H127.33V33.1936H123.398L122.972 30.4411H122.874C121.792 32.5054 120.187 33.5539 118.057 33.5539C114.779 33.5457 113.977 31.1839 113.786 28.7851L113.773 28.6161C113.75 28.2527 113.736 27.8889 113.732 27.5248V10.8136H118.778ZM78.375 10.3876C80.0134 10.3876 81.3568 10.7151 82.34 11.4032C83.3228 12.0914 84.0765 13.1401 84.5353 14.5817C84.994 16.0236 85.2234 17.9567 85.2234 20.3489V23.5926C85.2234 25.9848 84.994 27.8854 84.5353 29.327C84.0765 30.7692 83.3556 31.8176 82.34 32.5057C81.3244 33.1611 79.9478 33.5214 78.244 33.5214C76.4743 33.5542 75.0981 33.1939 74.0825 32.5386C73.0668 31.8504 72.3456 30.8017 71.92 29.3601C71.4937 27.9182 71.2972 26.0176 71.2972 23.6257V20.3814C71.2972 17.9892 71.5265 16.0232 72.0181 14.5814C72.5097 13.107 73.2631 12.0582 74.3118 11.4032C75.3603 10.7476 76.7037 10.3873 78.375 10.3873V10.3876ZM135.194 1.40918V13.2054H135.227C135.686 12.3536 136.276 11.6654 137.095 11.1411C137.86 10.6266 138.761 10.3528 139.683 10.3548C140.896 10.3548 141.813 10.6823 142.502 11.3048C143.19 11.9604 143.681 12.9761 143.976 14.3851C144.262 15.7501 144.424 17.6379 144.434 20.0186L144.435 20.2507V23.7895C144.435 27.0989 144.009 29.5567 143.222 31.1295C142.403 32.7023 141.158 33.4889 139.454 33.4889C138.504 33.4889 137.652 33.2595 136.866 32.8336C136.17 32.4283 135.594 31.8472 135.194 31.1486L135.129 31.0311H135.031L134.506 33.1611H130.345V1.40949H135.194V1.40918ZM115.14 2.55605V6.61887H110.16V33.1936H105.245V6.61918H100.231V2.55637H115.141L115.14 2.55605ZM61.1062 2.55605L61.1093 2.56855C61.1572 2.78137 61.8197 5.72668 62.5484 9.15824L62.6059 9.43012L62.6928 9.84105L62.7509 10.117L62.78 10.2554L62.8381 10.5329L62.8672 10.672L62.925 10.9504L63.0093 11.3576C63.5015 13.7339 63.9712 16.117 64.2522 17.8257H64.3834C64.6525 16.2929 65.0434 14.3314 65.4603 12.3286L65.5697 11.8054C65.6247 11.5436 65.6797 11.2817 65.7353 11.0204L65.8209 10.6151C66.387 7.961 66.97 5.31053 67.57 2.66387L67.5793 2.62168L67.5943 2.55605H72.6078L66.8078 23.2326V33.1611H61.86V23.2651H61.8272L56.0928 2.55574L61.1062 2.55605ZM78.2765 13.8607C77.5884 13.8607 77.1297 14.2214 76.835 14.9751C76.54 15.7286 76.409 16.8754 76.409 18.4814V25.4607C76.409 27.0992 76.54 28.3114 76.8022 29.0326C77.0643 29.7532 77.5559 30.1139 78.2765 30.1139C78.9647 30.1139 79.4562 29.7532 79.7512 29.0326C80.0462 28.3114 80.1772 27.0992 80.1772 25.4607V18.4811C80.1772 16.8754 80.0459 15.6957 79.7512 14.9748C79.4562 14.2214 78.9647 13.8607 78.2765 13.8607ZM136.079 14.5164C135.68 14.8851 135.396 15.3398 135.227 15.9082L135.194 16.0236V28.7373C135.601 29.4254 136.177 29.8842 137.193 29.917C137.717 29.917 138.143 29.7204 138.471 29.3273C138.799 28.9342 139.028 28.2786 139.159 27.3611C139.285 26.4804 139.351 25.2673 139.356 23.7223V20.6111C139.356 18.8417 139.29 17.4982 139.192 16.5479C139.061 15.5976 138.897 14.9095 138.602 14.5164C138.032 13.697 136.8 13.707 136.079 14.5164ZM153.413 13.7626C152.856 13.7954 152.463 13.9592 152.233 14.2542C151.972 14.5817 151.808 15.0732 151.709 15.7942C151.613 16.5004 151.58 18.9692 151.578 19.0679V20.6767H155.248V19.2579V19.2851C155.246 19.7811 155.236 18.9973 155.213 18.0351L155.21 17.9057C155.189 17.0601 155.159 16.1173 155.117 15.7942C155.019 15.0404 154.855 14.5161 154.593 14.2214C154.331 13.9264 153.937 13.7626 153.413 13.7626H153.413Z" fill="#282828"/>
</g>
</svg>
